<?xml version="1.0" encoding="UTF-8" standalone="no"?>
<svg
   xmlns:dc="http://purl.org/dc/elements/1.1/"
   xmlns:cc="http://creativecommons.org/ns#"
   xmlns:rdf="http://www.w3.org/1999/02/22-rdf-syntax-ns#"
   xmlns:svg="http://www.w3.org/2000/svg"
   xmlns="http://www.w3.org/2000/svg"
   xmlns:xlink="http://www.w3.org/1999/xlink"
   width="761.90479"
   height="761.90479"
   viewBox="-105 -105 200.00001 200.00001"
   version="1.1"
   id="svg58">
  <metadata
     id="metadata62">
    <rdf:RDF>
      <cc:Work
         rdf:about="">
        <dc:format>image/svg+xml</dc:format>
        <dc:type
           rdf:resource="http://purl.org/dc/dcmitype/StillImage" />
        <dc:title></dc:title>
      </cc:Work>
    </rdf:RDF>
  </metadata>
  <defs
     id="defs42">
    <clipPath
       id="ball">
      <circle
         r="100"
         stroke-width="0"
         id="circle2"
         cx="0"
         cy="0" />
    </clipPath>
    <radialGradient
       id="shadow1"
       cx="-19.999999"
       cy="-39.999998"
       r="160"
       fx="-19.999999"
       fy="-39.999998"
       gradientUnits="userSpaceOnUse"
       gradientTransform="translate(-5,-5)">
      <stop
         offset="0"
         stop-color="white"
         stop-opacity="1"
         id="stop5" />
      <stop
         offset=".4"
         stop-color="white"
         stop-opacity="1"
         id="stop7" />
      <stop
         offset=".8"
         stop-color="#EEEEEE"
         stop-opacity="1"
         id="stop9" />
    </radialGradient>
    <radialGradient
       id="shadow2"
       cx="0"
       cy="0"
       r="100"
       fx="0"
       fy="0"
       gradientUnits="userSpaceOnUse"
       gradientTransform="translate(-5.0000001,-5.0000001)">
      <stop
         offset="0"
         stop-color="white"
         stop-opacity="0"
         id="stop12" />
      <stop
         offset=".8"
         stop-color="white"
         stop-opacity="0"
         id="stop14" />
      <stop
         offset=".99"
         stop-color="black"
         stop-opacity=".3"
         id="stop16" />
      <stop
         offset="1"
         stop-color="black"
         stop-opacity="1"
         id="stop18" />
    </radialGradient>
    <g
       id="black_stuff"
       stroke-linejoin="round"
       clip-path="url(#ball)">
      <g
         fill="#000000"
         id="g35">
        <path
           d="m 6,-32 q 20,4 40,13 11,-16 18,-28 -14,-21 -27,-29 -20,1 -36,8 3,17 5,36"
           id="path21" />
        <path
           d="m -26,-2 q -19,-6 -36,-9 -12,16 -14,33 7,18 26,32 18,-7 33,-15 -6,-24 -9,-41"
           id="path23" />
        <path
           d="m -95,22 q -7,-10 -7,-30 v 88 h 17 Q -95,45 -95,22"
           id="path25" />
        <path
           d="M 55,24 Q 41,41 24,52 28,65 31,79 55,78 68,67 78,50 80,35 65,28 55,24"
           id="path27" />
        <path
           d="M 0,120 -3,95 q -22,-2 -39,-13 -8,2 -18,-1"
           id="path29" />
        <path
           d="m -90,-48 q 10,-4 22,-1 16,-22 33,-28 0,-23 -5,-23 h -60"
           id="path31" />
        <path
           d="m 100,-55 -13,18 q 11,27 10,42 l 3,1"
           id="path33" />
      </g>
      <g
         fill="none"
         id="g39">
        <path
           d="m 6,-32 q -24,20 -32,30 m 72,-17 q 8,24 9,43 m 9,-71 q 13,3 23,10 M 37,-76 q 2,-14 -1,-24 M 1,-68 q -14,-9 -36,-9 m -27,66 q -5,-14 -6,-38 m -8,71 q -9,2 -19,0 m 45,32 q 1,16 8,28 m 25,-43 q 17,9 41,13 m 7,27 Q 20,92 -3,95 M 68,67 80,80 M 80,35 Q 90,25 97,5"
           id="path37" />
      </g>
    </g>
  </defs>
  <g
     transform="rotate(220,-5,-5)"
     id="g1958">
    <circle
       cy="-5"
       cx="-5"
       id="circle44"
       stroke="none"
       fill="#ffffff"
       r="100" />
    <circle
       style="fill:url(#shadow1)"
       cy="-5"
       cx="-5"
       id="circle46"
       stroke="none"
       fill="url(#shadow1)"
       r="100" />
    <use
       transform="translate(-5.0000001,-5.0000001)"
       height="100%"
       width="100%"
       y="0"
       x="0"
       id="use48"
       stroke-width="7"
       stroke="#eeeeee"
       xlink:href="#black_stuff" />
    <use
       transform="translate(-5.0000001,-5.0000001)"
       height="100%"
       width="100%"
       y="0"
       x="0"
       id="use50"
       stroke-width="4"
       stroke="#dddddd"
       xlink:href="#black_stuff" />
    <use
       transform="translate(-5.0000001,-5.0000001)"
       height="100%"
       width="100%"
       y="0"
       x="0"
       id="use52"
       stroke-width="2"
       stroke="#999999"
       xlink:href="#black_stuff" />
    <use
       transform="translate(-5.0000001,-5.0000001)"
       height="100%"
       width="100%"
       y="0"
       x="0"
       id="use54"
       stroke-width="1"
       stroke="#000000"
       xlink:href="#black_stuff" />
    <circle
       style="fill:url(#shadow2)"
       cy="-5"
       cx="-5"
       id="circle56"
       stroke="none"
       fill="url(#shadow2)"
       r="100" />
  </g>
</svg>
